# xmcd
#
# Track frame offsets:
#   150
#   23256
#   52974
#   75733
#   89566
#   112010
#   129746
#   147736
#   167809
#   193562
#   222648
#   240195
#   260596
#   280727
#
# Disc length: 3961 seconds
#
# Revision: 0
# Processed by: cddbd v1.4PL0 Copyright (c) Steve Scherf et al.
# Submitted via: uFREEDB 1.6.0
#
DISCID=c90f770e
DTITLE=Varios Artistas - Mas de esas
DYEAR=2000
DGENRE=Blues
TTITLE0=sid 1
TTITLE1=sid 2
TTITLE2=sid 3
TTITLE3=sid 4
TTITLE4=sid 5
TTITLE5=sid 6
TTITLE6=sid 7
TTITLE7=sid 8
TTITLE8=sid 9
TTITLE9=sid 10
TTITLE10=sid 11
TTITLE11=sid 12
TTITLE12=sid 13
TTITLE13=sid 14
EXTD=
EXTT0=
EXTT1=
EXTT2=
EXTT3=
EXTT4=
EXTT5=
EXTT6=
EXTT7=
EXTT8=
EXTT9=
EXTT10=
EXTT11=
EXTT12=
EXTT13=
PLAYORDER=
